<?xml version="1.0" standalone="no"?>
<!DOCTYPE svg PUBLIC "-//W3C//DTD SVG 20010904//EN"
 "http://www.w3.org/TR/2001/REC-SVG-20010904/DTD/svg10.dtd">
<svg version="1.0" xmlns="http://www.w3.org/2000/svg"
 width="512.000000pt" height="512.000000pt" viewBox="0 0 512.000000 512.000000"
 preserveAspectRatio="xMidYMid meet">

<g transform="translate(0.000000,512.000000) scale(0.100000,-0.100000)"
fill="#000000" stroke="none">
<path d="M4370 4242 c-142 -149 -195 -274 -195 -457 1 -187 51 -328 254 -713
139 -264 185 -361 234 -498 118 -323 127 -612 29 -897 l-27 -78 -66 -23 c-118
-39 -193 -107 -245 -220 l-26 -58 -22 25 c-11 14 -151 112 -311 218 -238 158
-286 194 -270 200 11 5 37 15 57 23 22 9 43 26 52 44 28 54 64 198 77 303 l12
104 119 159 c129 174 138 197 93 241 -24 24 -28 25 -180 25 l-157 0 -51 46
c-65 57 -207 127 -312 153 -350 87 -565 38 -821 -186 -34 -29 -63 -53 -66 -53
-3 0 -36 21 -74 46 -148 99 -337 175 -529 210 -122 23 -433 26 -595 6 -157
-20 -331 -58 -462 -103 -131 -44 -156 -46 -242 -22 -74 21 -139 79 -154 138
-6 22 -13 113 -16 202 -12 357 -78 598 -191 702 -71 65 -157 78 -189 28 -14
-21 -50 -285 -77 -567 -18 -176 -17 -471 0 -540 36 -147 133 -294 253 -385 66
-50 204 -121 257 -131 17 -4 34 -11 37 -16 3 -4 20 -97 38 -204 l33 -196 -24
-81 c-33 -114 -53 -211 -53 -260 1 -179 137 -431 311 -576 l61 -51 349 0 350
0 24 25 c14 14 25 36 25 51 0 47 -70 174 -130 234 -66 68 -121 90 -226 90 -64
0 -75 3 -84 21 -7 11 -10 22 -8 24 2 1 48 25 103 52 l100 50 30 -19 c17 -10
62 -37 102 -59 64 -36 75 -46 96 -93 53 -115 149 -239 252 -327 l57 -49 269 0
270 0 24 25 c14 14 25 36 25 51 0 43 -68 169 -121 226 -27 29 -49 54 -49 55 0
2 8 3 18 3 28 0 229 86 302 129 38 23 73 41 79 41 6 0 45 -28 88 -63 104 -84
217 -153 311 -190 66 -27 90 -31 172 -31 83 -1 103 3 160 27 90 40 134 50 174
43 19 -4 103 -52 187 -107 154 -100 220 -129 290 -129 52 0 135 18 191 42 l46
20 54 -44 c87 -71 146 -92 258 -93 86 0 101 3 162 32 93 44 151 100 196 191
35 72 37 81 37 171 0 87 -3 102 -32 164 -41 86 -120 166 -197 198 -42 17 -55
27 -51 38 15 37 55 184 66 242 8 38 13 136 13 239 0 142 -5 194 -23 279 -49
232 -121 407 -322 791 -142 271 -200 406 -223 522 -20 97 -20 148 -1 223 23
86 61 149 143 237 57 61 72 84 72 108 0 42 -39 80 -82 80 -28 0 -44 -11 -108
-78z m-4110 -743 c30 -100 49 -248 59 -456 10 -202 18 -241 70 -316 52 -76
135 -127 248 -153 94 -22 179 -14 283 25 242 92 650 142 907 112 241 -28 469
-121 644 -261 89 -71 96 -70 216 48 192 188 335 242 569 212 182 -23 323 -82
419 -176 l55 -54 95 0 95 0 -80 -107 c-76 -100 -80 -109 -80 -157 0 -68 -16
-166 -40 -247 l-19 -65 -90 -29 -89 -28 -48 28 c-27 15 -113 68 -191 117 -84
52 -152 88 -168 88 -59 0 -97 -83 -57 -128 9 -11 267 -180 572 -376 l555 -356
49 -76 c40 -61 47 -77 35 -85 -22 -13 -94 -22 -128 -14 -17 3 -99 51 -183 106
-238 155 -273 160 -513 66 -22 -9 -58 -16 -81 -17 -109 -1 -290 100 -472 264
-42 38 -71 56 -89 56 -14 0 -60 -22 -102 -49 -258 -165 -470 -216 -731 -176
-148 22 -249 63 -421 171 -47 30 -96 54 -108 54 -32 0 -378 -177 -391 -199 -5
-11 -10 -29 -10 -41 0 -31 97 -218 119 -230 11 -5 67 -10 126 -10 l106 0 42
-40 42 -39 -247 -1 -246 0 -69 74 c-107 115 -176 246 -189 358 -7 60 8 139 52
280 l26 83 -43 258 c-27 168 -48 266 -58 278 -9 11 -49 27 -92 38 -119 30
-213 83 -295 165 -126 126 -160 236 -150 486 5 145 39 520 52 584 8 37 17 23
44 -65z m4534 -2071 c86 -26 166 -136 166 -228 0 -124 -116 -240 -240 -240
-124 0 -240 116 -240 240 0 63 23 114 75 165 70 71 145 90 239 63z m-2772
-300 c101 -10 119 -14 124 -31 8 -25 62 -57 97 -57 19 0 42 -13 70 -40 l42
-39 -167 -1 -166 0 -62 68 c-34 37 -71 80 -83 96 l-21 29 25 -7 c13 -3 77 -12
141 -18z"/>
<path d="M3145 2615 c-24 -23 -25 -28 -25 -175 0 -147 1 -152 25 -175 15 -16
36 -25 55 -25 19 0 40 9 55 25 22 22 25 32 25 104 l0 80 72 -25 c90 -30 113
-30 143 1 30 29 33 74 8 104 -19 22 -267 111 -311 111 -12 0 -34 -11 -47 -25z"/>
</g>
</svg>
